# xmcd
#
# Track frame offsets:
#	225
#	21223
#	42362
#	70842
#	99077
#	118070
#	138337
#	162793
#	188403
#	215865
#	230975
#	255796
#
# Disc length: 3728 seconds
#
# Revision: 1
# Processed by: cddbd v1.5.2PL0 Copyright (c) Steve Scherf et al.
# Submitted via: audiograbber 1.83.01
#
DISCID=a00e8d0c
DTITLE=Still Going West - After the Concert
DYEAR=1900
DGENRE=Country
TTITLE0=Friends
TTITLE1=Big mistake
TTITLE2=Monday afternoon blues
TTITLE3=Freedom
TTITLE4=Passengers (on the wings of time)
TTITLE5=Easy prey
TTITLE6=All I can do is hope
TTITLE7=Slowly go downhill
TTITLE8=Only you
TTITLE9=Night in town
TTITLE10=We better beware
TTITLE11=After the concert
EXTD=
EXTT0=
EXTT1=
EXTT2=
EXTT3=
EXTT4=
EXTT5=
EXTT6=
EXTT7=
EXTT8=
EXTT9=
EXTT10=
EXTT11=
PLAYORDER=
